<?xml version="1.0" encoding="UTF-8"?>
<svg version="1.1" viewBox="0 0 2120 1280" xmlns="http://www.w3.org/2000/svg">
 <g transform="translate(0 227.64)">
  <circle cx="1096.1" cy="168.96" r="110.61" fill="#f60" stroke-width="0"/>
  <rect x="984.16" y="291.27" width="230.32" height="403.39" rx="45.705" ry="79.79" fill="#f60" stroke-width="0"/>
  <rect x="984.16" y="550.22" width="105.4" height="420.3" rx="79.79" ry="79.79" fill="#f60" stroke-width="0"/>
  <rect x="1109.1" y="537.21" width="105.4" height="434.62" rx="79.79" ry="79.79" fill="#f60" stroke-width="0"/>
  <rect transform="matrix(-.48389 -.87513 .87513 -.48389 0 0)" x="-923.13" y="744.19" width="105.4" height="434.62" rx="20.916" ry="85.967" fill="#f60" stroke-width="0"/>
  <g transform="matrix(.77152 .20348 -.20348 .77152 593.19 -256.72)">
   <rect x="976.87" y="-82.698" width="316.38" height="402.82" fill="#19aeff" stroke="#2d2d2d" stroke-linecap="round" stroke-linejoin="round" stroke-width="25"/>
   <g transform="matrix(.25101 0 0 .30901 650.48 -62.532)" stroke-width="0">
    <rect x="1423.7" y="33.092" width="402.82" height="331.06" fill="#404040"/>
    <path transform="translate(0 -227.64)" d="m1625.9 478.52a233.95 233.95 0 0 0 -199.62 112.52h399.34a233.95 233.95 0 0 0 -199.71 -112.52z" fill="#f60"/>
    <circle cx="1621" cy="165.19" r="119.05" fill="#f60"/>
   </g>
   <rect x="1131.8" y="-51.712" width="132.1" height="22.832" rx="7.5701" ry="10" fill="#0e232e" stroke-width="0"/>
   <rect x="1132.6" y="-12.572" width="132.1" height="22.832" rx="7.5701" ry="10" fill="#0e232e" stroke-width="0"/>
   <rect x="1005.4" y="70.601" width="252.78" height="22.832" rx="14.486" ry="10" fill="#0e232e" stroke-width="0"/>
   <rect x="1005.4" y="117.89" width="252.78" height="22.832" rx="14.486" ry="10" fill="#0e232e" stroke-width="0"/>
   <rect x="1005.4" y="161.93" width="252.78" height="22.832" rx="14.486" ry="10" fill="#0e232e" stroke-width="0"/>
   <rect x="1005.4" y="209.22" width="130.47" height="22.832" rx="7.4766" ry="10" fill="#0e232e" stroke-width="0"/>
   <rect x="1173.4" y="266.3" width="81.542" height="22.832" rx="10" ry="10" fill="#0e232e" stroke-width="0"/>
  </g>
  <rect transform="matrix(.48389 -.87513 -.87513 -.48389 0 0)" x="137.34" y="-1179.1" width="105.4" height="434.62" rx="20.916" ry="85.967" fill="#f60" stroke-width="0"/>
  <g transform="matrix(.67217 .42993 -.42993 .67217 791.95 -478.01)">
   <rect x="976.87" y="-82.698" width="316.38" height="402.82" fill="#19aeff" stroke="#2d2d2d" stroke-linecap="round" stroke-linejoin="round" stroke-width="25"/>
   <g transform="matrix(.25101 0 0 .30901 650.48 -62.532)" stroke-width="0">
    <rect x="1423.7" y="33.092" width="402.82" height="331.06" fill="#404040"/>
    <path transform="translate(0 -227.64)" d="m1625.9 478.52a233.95 233.95 0 0 0 -199.62 112.52h399.34a233.95 233.95 0 0 0 -199.71 -112.52z" fill="#f60"/>
    <circle cx="1621" cy="165.19" r="119.05" fill="#f60"/>
   </g>
   <rect x="1131.8" y="-51.712" width="132.1" height="22.832" rx="7.5701" ry="10" fill="#0e232e" stroke-width="0"/>
   <rect x="1132.6" y="-12.572" width="132.1" height="22.832" rx="7.5701" ry="10" fill="#0e232e" stroke-width="0"/>
   <rect x="1005.4" y="70.601" width="252.78" height="22.832" rx="14.486" ry="10" fill="#0e232e" stroke-width="0"/>
   <rect x="1005.4" y="117.89" width="252.78" height="22.832" rx="14.486" ry="10" fill="#0e232e" stroke-width="0"/>
   <rect x="1005.4" y="161.93" width="252.78" height="22.832" rx="14.486" ry="10" fill="#0e232e" stroke-width="0"/>
   <rect x="1005.4" y="209.22" width="130.47" height="22.832" rx="7.4766" ry="10" fill="#0e232e" stroke-width="0"/>
   <rect x="1173.4" y="266.3" width="81.542" height="22.832" rx="10" ry="10" fill="#0e232e" stroke-width="0"/>
  </g>
  <g transform="matrix(.52811 .59812 -.59812 .52811 1034.7 -615.06)">
   <rect x="976.87" y="-82.698" width="316.38" height="402.82" fill="#19aeff" stroke="#2d2d2d" stroke-linecap="round" stroke-linejoin="round" stroke-width="25"/>
   <g transform="matrix(.25101 0 0 .30901 650.48 -62.532)" stroke-width="0">
    <rect x="1423.7" y="33.092" width="402.82" height="331.06" fill="#404040"/>
    <path transform="translate(0 -227.64)" d="m1625.9 478.52a233.95 233.95 0 0 0 -199.62 112.52h399.34a233.95 233.95 0 0 0 -199.71 -112.52z" fill="#f60"/>
    <circle cx="1621" cy="165.19" r="119.05" fill="#f60"/>
   </g>
   <rect x="1131.8" y="-51.712" width="132.1" height="22.832" rx="7.5701" ry="10" fill="#0e232e" stroke-width="0"/>
   <rect x="1132.6" y="-12.572" width="132.1" height="22.832" rx="7.5701" ry="10" fill="#0e232e" stroke-width="0"/>
   <rect x="1005.4" y="70.601" width="252.78" height="22.832" rx="14.486" ry="10" fill="#0e232e" stroke-width="0"/>
   <rect x="1005.4" y="117.89" width="252.78" height="22.832" rx="14.486" ry="10" fill="#0e232e" stroke-width="0"/>
   <rect x="1005.4" y="161.93" width="252.78" height="22.832" rx="14.486" ry="10" fill="#0e232e" stroke-width="0"/>
   <rect x="1005.4" y="209.22" width="130.47" height="22.832" rx="7.4766" ry="10" fill="#0e232e" stroke-width="0"/>
   <rect x="1173.4" y="266.3" width="81.542" height="22.832" rx="10" ry="10" fill="#0e232e" stroke-width="0"/>
  </g>
  <g transform="matrix(.61124 -.51287 .51287 .61124 -96.323 615.59)">
   <rect x="976.87" y="-82.698" width="316.38" height="402.82" fill="#19aeff" stroke="#2d2d2d" stroke-linecap="round" stroke-linejoin="round" stroke-width="25"/>
   <g transform="matrix(.25101 0 0 .30901 650.48 -62.532)" stroke-width="0">
    <rect x="1423.7" y="33.092" width="402.82" height="331.06" fill="#404040"/>
    <path transform="translate(0 -227.64)" d="m1625.9 478.52a233.95 233.95 0 0 0 -199.62 112.52h399.34a233.95 233.95 0 0 0 -199.71 -112.52z" fill="#f60"/>
    <circle cx="1621" cy="165.19" r="119.05" fill="#f60"/>
   </g>
   <rect x="1131.8" y="-51.712" width="132.1" height="22.832" rx="7.5701" ry="10" fill="#0e232e" stroke-width="0"/>
   <rect x="1132.6" y="-12.572" width="132.1" height="22.832" rx="7.5701" ry="10" fill="#0e232e" stroke-width="0"/>
   <rect x="1005.4" y="70.601" width="252.78" height="22.832" rx="14.486" ry="10" fill="#0e232e" stroke-width="0"/>
   <rect x="1005.4" y="117.89" width="252.78" height="22.832" rx="14.486" ry="10" fill="#0e232e" stroke-width="0"/>
   <rect x="1005.4" y="161.93" width="252.78" height="22.832" rx="14.486" ry="10" fill="#0e232e" stroke-width="0"/>
   <rect x="1005.4" y="209.22" width="130.47" height="22.832" rx="7.4766" ry="10" fill="#0e232e" stroke-width="0"/>
   <rect x="1173.4" y="266.3" width="81.542" height="22.832" rx="10" ry="10" fill="#0e232e" stroke-width="0"/>
  </g>
  <g transform="matrix(.73891 -.30109 .30109 .73891 -162.44 325.59)">
   <rect x="976.87" y="-82.698" width="316.38" height="402.82" fill="#19aeff" stroke="#2d2d2d" stroke-linecap="round" stroke-linejoin="round" stroke-width="25"/>
   <g transform="matrix(.25101 0 0 .30901 650.48 -62.532)" stroke-width="0">
    <rect x="1423.7" y="33.092" width="402.82" height="331.06" fill="#404040"/>
    <path transform="translate(0 -227.64)" d="m1625.9 478.52a233.95 233.95 0 0 0 -199.62 112.52h399.34a233.95 233.95 0 0 0 -199.71 -112.52z" fill="#f60"/>
    <circle cx="1621" cy="165.19" r="119.05" fill="#f60"/>
   </g>
   <rect x="1131.8" y="-51.712" width="132.1" height="22.832" rx="7.5701" ry="10" fill="#0e232e" stroke-width="0"/>
   <rect x="1132.6" y="-12.572" width="132.1" height="22.832" rx="7.5701" ry="10" fill="#0e232e" stroke-width="0"/>
   <rect x="1005.4" y="70.601" width="252.78" height="22.832" rx="14.486" ry="10" fill="#0e232e" stroke-width="0"/>
   <rect x="1005.4" y="117.89" width="252.78" height="22.832" rx="14.486" ry="10" fill="#0e232e" stroke-width="0"/>
   <rect x="1005.4" y="161.93" width="252.78" height="22.832" rx="14.486" ry="10" fill="#0e232e" stroke-width="0"/>
   <rect x="1005.4" y="209.22" width="130.47" height="22.832" rx="7.4766" ry="10" fill="#0e232e" stroke-width="0"/>
   <rect x="1173.4" y="266.3" width="81.542" height="22.832" rx="10" ry="10" fill="#0e232e" stroke-width="0"/>
  </g>
  <g transform="matrix(.79321 -.086394 .086394 .79321 -134.37 48.232)">
   <rect x="976.87" y="-82.698" width="316.38" height="402.82" fill="#19aeff" stroke="#2d2d2d" stroke-linecap="round" stroke-linejoin="round" stroke-width="25"/>
   <g transform="matrix(.25101 0 0 .30901 650.48 -62.532)" stroke-width="0">
    <rect x="1423.7" y="33.092" width="402.82" height="331.06" fill="#404040"/>
    <path transform="translate(0 -227.64)" d="m1625.9 478.52a233.95 233.95 0 0 0 -199.62 112.52h399.34a233.95 233.95 0 0 0 -199.71 -112.52z" fill="#f60"/>
    <circle cx="1621" cy="165.19" r="119.05" fill="#f60"/>
   </g>
   <rect x="1131.8" y="-51.712" width="132.1" height="22.832" rx="7.5701" ry="10" fill="#0e232e" stroke-width="0"/>
   <rect x="1132.6" y="-12.572" width="132.1" height="22.832" rx="7.5701" ry="10" fill="#0e232e" stroke-width="0"/>
   <rect x="1005.4" y="70.601" width="252.78" height="22.832" rx="14.486" ry="10" fill="#0e232e" stroke-width="0"/>
   <rect x="1005.4" y="117.89" width="252.78" height="22.832" rx="14.486" ry="10" fill="#0e232e" stroke-width="0"/>
   <rect x="1005.4" y="161.93" width="252.78" height="22.832" rx="14.486" ry="10" fill="#0e232e" stroke-width="0"/>
   <rect x="1005.4" y="209.22" width="130.47" height="22.832" rx="7.4766" ry="10" fill="#0e232e" stroke-width="0"/>
   <rect x="1173.4" y="266.3" width="81.542" height="22.832" rx="10" ry="10" fill="#0e232e" stroke-width="0"/>
  </g>
 </g>
</svg>
